<?xml version="1.0" standalone="no"?><!DOCTYPE svg PUBLIC "-//W3C//DTD SVG 1.1//EN" "http://www.w3.org/Graphics/SVG/1.1/DTD/svg11.dtd"><svg t="1763987108537" class="icon" viewBox="0 0 1024 1024" version="1.1" xmlns="http://www.w3.org/2000/svg" p-id="2632" xmlns:xlink="http://www.w3.org/1999/xlink" width="200" height="200"><path d="M512.648 235.806c-152.9 0-277.4 124.4-277.4 277.4 0 152.9 124.4 277.4 277.4 277.4 152.9 0 277.4-124.5 277.4-277.4 0-152.9-124.4-277.4-277.4-277.4z m0 490.8c-117.669 0-213.399-95.731-213.399-213.4s95.73-213.4 213.399-213.4 213.4 95.731 213.4 213.4-95.731 213.4-213.4 213.4zM512.649 191.468c-17.673 0-32-14.327-32-32V99.329c0-17.673 14.327-32 32-32 17.673 0 32 14.327 32 32v60.139c0 17.673-14.326 32-32 32zM279.138 281.994c-12.497 12.497-32.758 12.497-45.255 0l-42.525-42.525c-12.497-12.497-12.497-32.758 0-45.255s32.758-12.497 45.255 0l42.525 42.525c12.497 12.497 12.497 32.759 0 45.255zM832.44 835.992c-12.497 12.497-32.758 12.497-45.255 0l-42.525-42.525c-12.497-12.497-12.497-32.758 0-45.255s32.758-12.497 45.255 0l42.525 42.525c12.496 12.497 12.496 32.758 0 45.255zM746.159 288.62c-12.497-12.497-12.497-32.758 0-45.255l42.525-42.525c12.497-12.497 32.758-12.497 45.255 0s12.497 32.758 0 45.255l-42.525 42.525c-12.497 12.497-32.759 12.497-45.255 0zM197.065 834.496c-12.497-12.497-12.497-32.758 0-45.255l42.525-42.525c12.497-12.497 32.758-12.497 45.255 0s12.497 32.758 0 45.255l-42.525 42.525c-12.497 12.497-32.758 12.497-45.255 0zM834.974 513.206c0-17.673 14.327-32 32-32h60.139c17.673 0 32 14.327 32 32 0 17.673-14.327 32-32 32h-60.139c-17.673 0-32-14.327-32-32zM63.553 513.206c0-17.673 14.327-32 32-32h60.139c17.673 0 32 14.327 32 32 0 17.673-14.327 32-32 32H95.553c-17.673 0-32-14.327-32-32zM512.649 959.117c-17.673 0-32-14.327-32-32v-60.139c0-17.673 14.327-32 32-32 17.673 0 32 14.327 32 32v60.139c0 17.673-14.326 32-32 32z" p-id="2633"></path></svg>