<?xml version="1.0" standalone="no"?><!DOCTYPE svg PUBLIC "-//W3C//DTD SVG 1.1//EN" "http://www.w3.org/Graphics/SVG/1.1/DTD/svg11.dtd"><svg t="1763987092497" class="icon" viewBox="0 0 1149 1024" version="1.1" xmlns="http://www.w3.org/2000/svg" p-id="1629" xmlns:xlink="http://www.w3.org/1999/xlink" width="224.4140625" height="200"><path d="M1082.409229 658.321931a508.317254 508.317254 0 0 1-127.90948 213.927488A524.090415 524.090415 0 0 1 216.928858 127.462467 508.317254 508.317254 0 0 1 427.024809 3.192948a79.1851 79.1851 0 0 1 97.576478 100.258553 364.762331 364.762331 0 0 0 457.42167 457.485529 79.121241 79.121241 0 0 1 100.386272 97.384901zM553.210097 532.392079a449.375442 449.375442 0 0 1-115.584702-441.456932c-60.027414 20.434864-114.690677 54.088532-159.902815 98.470503a437.3061 437.3061 0 0 0 615.344857 621.411458 421.405221 421.405221 0 0 0 101.535733-162.840327 449.375442 449.375442 0 0 1-441.393073-115.584702zM968.740295 208.818772l-11.750047 3.895396c-34.994705 11.55847-62.454055 38.95396-74.012525 73.948665l-3.831537 11.877765a21.712044 21.712044 0 0 1-41.316742 0l-3.895396-11.877765a116.223292 116.223292 0 0 0-73.948666-73.948665l-11.813906-3.831538a21.712044 21.712044 0 0 1 0-41.316741l11.813906-3.831537a116.223292 116.223292 0 0 0 73.948666-73.948666l3.895396-11.877765a21.712044 21.712044 0 0 1 41.252883 0l3.895396 11.813906c11.55847 34.994705 39.017819 62.390196 74.012525 73.948666l11.750047 3.895396a21.712044 21.712044 0 0 1 0 41.252883z" fill="#7C8196" p-id="1630"></path></svg>